<?xml version="1.0" encoding="utf-8"?>
<!-- Generator: Adobe Illustrator 16.0.0, SVG Export Plug-In . SVG Version: 6.00 Build 0)  -->
<!DOCTYPE svg PUBLIC "-//W3C//DTD SVG 1.1//EN" "http://www.w3.org/Graphics/SVG/1.1/DTD/svg11.dtd">
<svg version="1.1" id="cheewbaca" xmlns="http://www.w3.org/2000/svg" xmlns:xlink="http://www.w3.org/1999/xlink" x="0px" y="0px"
	 width="99.753px" height="129.141px" viewBox="0 0 99.753 129.141" enable-background="new 0 0 99.753 129.141"
	 xml:space="preserve">
<g>
	<g>
		<path fill="#97662D" d="M91.463,29.859c-1.709-4.603-4.079-8.765-6.961-12.425c-0.083-0.078-0.162-0.158-0.245-0.236
			C66.284,0.307,38.021,1.185,21.13,19.158C-1.608,43.352-1.072,104.18,0.831,105.968c1.704,1.602,61.526-0.255,85.385-25.643
			c2.736-2.911,5.003-6.095,6.811-9.453C95.499,56.703,95.915,41.855,91.463,29.859z"/>
		<path fill="#654928" d="M48.39,100.233l-0.127-54.484l-47.431,60.22C1.885,106.958,25.144,106.625,48.39,100.233z"/>
	</g>
	<g>
		<path fill="#97662D" d="M91.374,61.877C78.932,95.442,23.043,121.1,20.791,120.265c-2.517-0.933-27.327-58.3-15.469-90.287
			C14.131,6.215,40.536-5.907,64.298,2.902C88.062,11.71,100.183,38.115,91.374,61.877z"/>
		<path fill="#654928" d="M48.262,106.556V45.749l-27.471,74.517C21.821,120.647,34.077,115.483,48.262,106.556z"/>
	</g>
	<g>
		<path fill="#97662D" d="M72.424,17.392C55.643,2.073,30.377,1.909,13.438,16.13c-3.408,3.991-6.186,8.639-8.116,13.848
			C0.573,42.79,1.708,59.672,4.935,75.371c1.973,2.951,4.327,5.714,7.065,8.215c24.606,22.46,85.627,21.037,87.394,19.102
			C100.976,100.955,98.242,40.961,72.424,17.392z"/>
		<path fill="#654928" d="M89.885,46.379H48.262L99.394,103l0.039,0.102C100.478,101.23,99.375,71.379,89.885,46.379z"/>
	</g>
	<g>
		<path fill="#97662D" d="M91.463,29.859c12.458,33.558-13.177,89.458-15.429,90.294c-2.516,0.933-58.736-26.374-70.609-58.356
			C-3.395,38.04,8.715,11.63,32.475,2.81C56.232-6.01,82.644,6.101,91.463,29.859z"/>
		<path fill="#654928" d="M94.673,46.379H48.262l27.772,74.404C77.959,120.07,96.932,78.379,94.673,46.379z"/>
	</g>
	<path fill="#97662D" d="M94.291,45.961c-0.057,35.796-43.612,79.21-46.014,79.207c-2.684-0.004-45.814-45.24-45.759-79.354
		C2.559,20.47,23.136-0.041,48.479,0S94.332,20.619,94.291,45.961z"/>
	<path fill="#9E713C" d="M75.539,82.26c0,21.168-25.714,46.881-27.134,46.881c-1.587,0-27.135-26.709-27.135-46.881
		c0-14.986,12.149-27.135,27.135-27.135C63.39,55.125,75.539,67.274,75.539,82.26z"/>
	<g>
		<polygon fill="#232425" points="48.121,60.706 39.529,58.109 48.121,48.949 56.713,58.109 		"/>
		<polygon fill="#3D3C3D" points="39.529,58.109 48.121,60.706 48.121,48.949 		"/>
	</g>
</g>
<g>
	<circle class="eye_ball" fill="#FFFFFF" cx="34.569" cy="36.696" r="8.942"/>
	<circle class="eye_pupil" fill="#232425" cx="34.358" cy="40.984" r="3.052"/>
	<circle class="eye_ball" fill="#FFFFFF" cx="62.699" cy="36.696" r="8.943"/>
	<circle class="eye_pupil" fill="#232425" cx="62.771" cy="40.984" r="3.053"/>
	<g class="lower_eye_lid">
		<path fill="#654928" d="M34.569,45.951c4.997,0,9.065-3.959,9.246-8.911l-0.036-0.089l-1.782,1.723l-1.773-1.683l-1.622,1.184
			l-1.56-1.173l-1.547,1.439l-2.338-1.437L31.98,38.7l-2.059-1.696L28.598,38.7l-1.029-1.696l-2.132,0.848l-0.053-0.046
			C25.933,42.394,29.834,45.951,34.569,45.951z"/>
		<path fill="#97662D" d="M40.223,39.637l-1.622,1.183l-1.56-1.173l-1.547,1.439l-2.338-1.437l-1.176,1.696l-2.059-1.695
			l-1.323,1.696l-1.029-1.695l-1.539,0.612c1.396,3.34,4.693,5.688,8.539,5.688c3.859,0,7.161-2.361,8.55-5.717l-1.123,1.085
			L40.223,39.637z"/>
	</g>
	<path class="upper_eye_lid" fill="#97662D" d="M34.569,27.441c-5.11,0-9.254,4.144-9.254,9.255c0,0.784,0.099,1.544,0.282,2.271l0.998-0.965l1.773,1.682
		l1.622-1.183l1.559,1.172l1.548-1.438l2.337,1.436l1.177-1.696l2.058,1.696l1.324-1.696l1.029,1.696l2.132-0.848l0.348,0.297
		c0.209-0.772,0.322-1.584,0.322-2.423C43.824,31.585,39.681,27.441,34.569,27.441z"/>
	<g class="lower_eye_lid">
		<path fill="#654928" d="M62.698,45.827c-4.929,0-8.943-3.906-9.122-8.792l0.036-0.088l1.759,1.699l1.75-1.66l1.6,1.168
			l1.539-1.157l1.527,1.419L64.093,37l1.161,1.673L67.283,37l1.307,1.673L69.604,37l2.104,0.836l0.053-0.045
			C71.219,42.318,67.37,45.827,62.698,45.827z"/>
		<path fill="#97662D" d="M57.121,39.598l1.6,1.167l1.539-1.157l1.527,1.419l2.306-1.417l1.161,1.673l2.029-1.672l1.307,1.673
			l1.015-1.672l1.52,0.604c-1.378,3.295-4.631,5.611-8.426,5.611c-3.806,0-7.064-2.33-8.435-5.64l1.107,1.071L57.121,39.598z"/>
	</g>
	<path class="upper_eye_lid" fill="#97662D" d="M62.698,27.565c5.043,0,9.132,4.088,9.132,9.131c0,0.773-0.098,1.523-0.28,2.24l-0.984-0.952l-1.75,1.66
		l-1.6-1.167l-1.537,1.157l-1.527-1.418l-2.307,1.416l-1.16-1.673l-2.032,1.673l-1.305-1.673l-1.016,1.673l-2.103-0.836
		l-0.343,0.292c-0.207-0.762-0.319-1.563-0.319-2.39C53.567,31.653,57.654,27.565,62.698,27.565z"/>
</g>
</svg>
